<?xml version="1.0" encoding="utf-8"?>
<svg xmlns="http://www.w3.org/2000/svg" viewBox="0 0 1200 616">
	<title>A hand-drawn map of the area where the disappearances occurred.</title>
	<path d="M79.788 605.454c-.3-.3-16.913-.637-36.917-.75L6.5 604.5 6.305 584c-.948-99.534-1.416-135.258-1.834-139.75-.269-2.887-.289-5.25-.045-5.25s1.556.423 2.916.94c3.63 1.38 3.98 4.677 3.163 29.73C9.874 489.046 9.568 492 8.198 492c-1.436 0-1.437.114-.008 1.25 2.553 2.03 2.902 7.89 3.412 57.25.268 25.85.69 47.595.939 48.322.366 1.073 5.033 1.197 24.705.656 13.34-.368 28.529-.513 33.754-.323 10.144.368 37.77.265 81.5-.304 19.635-.255 29.246.023 35.233 1.019 6.63 1.102 17.737 1.228 57 .645 26.822-.398 111.875-.619 189.008-.49 111.141.186 140.554-.025 141.75-1.018 1.212-1.006 1.509-.999 1.509.034 0 1.042 11.352 1.153 59.75.583 32.863-.387 67.25-.669 76.418-.626 10.992.05 16.896-.293 17.339-1.01.476-.77 1.083-.743 2.09.092 1.058.879 9.205 1.008 32.16.511 35.425-.767 252.846-.954 254.036-.22.654.405 104.233.784 152.86.56l13.153-.061.795-12.685c.437-6.977.714-33.385.617-58.685-.098-25.3.253-55.225.781-66.5 2.049-43.79 2.88-104.086 3.627-262.895l.457-97.395-72.291.695c-39.76.383-99.967.878-133.792 1.1-102.954.675-160.05 1.643-212 3.594-1.375.052-7.675.047-14-.01s-15.775.107-21 .364c-10.31.506-46.663 1.25-101 2.066-40.236.605-117.552 2.126-178 3.502-68.463 1.559-144.756 2.87-199.5 3.43-51.916.53-98.987 1.328-121.5 2.058-6.875.223-35.174.722-62.887 1.11-43.176.604-50.32.503-49.918-.707.388-1.167 7.217-1.537 39.387-2.134 21.405-.397 47.468-1.097 57.918-1.556s38.35-.996 62-1.194 45.25-.445 48-.55 23-.49 45-.855 51.025-.892 64.5-1.174c13.475-.28 35.374-.478 48.664-.437 16.457.05 24.38-.275 24.84-1.018.486-.786 1.047-.782 2.01.017.921.765 6.402.933 17.66.543 8.98-.31 42.651-1.02 74.826-1.578 32.175-.557 65.925-1.21 75-1.453s38.1-.915 64.5-1.493c51.643-1.13 66.083-1.473 102.5-2.429 56.67-1.488 131.11-2.506 227.5-3.11 42.9-.268 86.325-.733 96.5-1.031 23.727-.696 64.372-1.306 92.75-1.393L1191 97V73.66c0-12.836-.297-32.216-.66-43.066l-.661-19.728-9.09.476c-12.585.659-116.625.856-130.032.247-6.019-.273-23.344-.451-38.5-.394-84.712.316-190.965.175-204.057-.27-6.875-.234-27.125-.386-45-.337-38.598.104-42.88.119-45.5.16-3.796.058-252.257 1.308-344.5 1.733-50.875.234-152.462.478-225.75.543-111.745.098-133.47.34-134.626 1.495-3.046 3.046-4.621 26.44-2.06 30.586.381.615.136 1.462-.543 1.882-.69.426-.964 1.616-.622 2.695.773 2.434.882 57.226.15 75.568-.475 11.92-.344 13.75.984 13.75 2.433 0 8.16-2.664 11.967-5.567 3.904-2.979 4.851-1.5 1.395 2.179-3.601 3.833-1.853 4.343 12.636 3.688 9.864-.446 13.469-.3 13.469.546 0 .805-3.46 1.154-11.435 1.154-6.29 0-12.624.452-14.078 1.005-2.295.873-2.557 1.4-1.986 4 .362 1.647.401 2.995.087 2.995s-2.634-1.575-5.156-3.5c-7.58-5.786-8.175-5.275-7.85 6.75.233 8.615.58 85.706.584 129.75.001 6.875.022 23.3.046 36.5s-.058 32.1-.184 42-.141 23.61-.034 30.469c.13 8.3-.171 12.59-.9 12.833-1.46.487-1.387 2.505.147 4.039 1.367 1.367 1.222 28.991-.16 30.442-.41.43-1.512.489-2.448.13-1.582-.608-1.656-4.28-1.062-52.783.352-28.671 1.038-52.621 1.526-53.222.487-.6.648-1.33.357-1.62-.904-.905-1.482-61.283-1.863-194.487L5.225 8.1l70.137-.19c38.576-.104 96.013-.015 127.638.2 99.468.673 151.71.384 358-1.985 93.271-1.071 471.863-.046 501 1.357 8.47.407 78.538.459 124.82.091l9.32-.074-.105 23c-.058 12.65-.532 36.725-1.055 53.5s-.961 69.2-.974 116.5c-.032 115.773-.796 253.2-1.773 319-1.224 82.348-1.274 84.757-1.784 85.582-.262.424-1.883.367-3.604-.126-1.72-.494-16.54-.869-32.931-.834-16.392.035-30.174-.165-30.626-.444-.452-.28-72.814-.774-160.805-1.098-87.99-.324-162.458-.835-165.483-1.135s-11.125-.121-18 .397-35.45 1.206-63.5 1.527-51.675.62-52.5.667c-.825.046-65.85.036-144.5-.022-133.433-.099-173.067.084-338.314 1.56-45.943.41-63.683.258-64.66-.553-.93-.77-1.55-.792-1.996-.07-.668 1.081-32.687 1.559-33.742.503M9 467.56c0-.243-.45-.72-1-1.059s-1-.141-1 .441S7.45 468 8 468s1-.198 1-.441m8.68 126.788c-1.039-1.04 3.656-6.347 5.615-6.347 1.339 0 1.736.478 1.312 1.582-.334.87-.607 1.758-.607 1.974 0 .798-5.766 3.344-6.32 2.791m557.57-46.954c-.687-.308-1.25-1.197-1.25-1.976 0-1.078 1.563-1.417 6.532-1.417 14.02 0 19.881-7.059 11.918-14.354-3.056-2.8-3.42-3.593-2.615-5.7 1.367-3.574 3.996-5.548 9.979-7.492 3.77-1.225 5.624-1.416 6.383-.657 1.927 1.927.063 4.203-3.443 4.203-4.49 0-8.07 2.54-6.835 4.849.51.951 2.036 2.324 3.393 3.05 4.735 2.534 6.103 9.205 2.65 12.912-3.834 4.115-9.901 6.414-17.914 6.789-4.152.194-8.11.1-8.798-.207M415 543.08c0-4.147 10.368-20.401 15.839-24.831 2.471-2.002 9.525-1.538 12.526.823 3.52 2.768 3.322 5.871-.615 9.674-2.966 2.865-5.922 4.001-14.916 5.735-2.073.4-2.98 1.46-4.077 4.766-1.284 3.868-1.743 4.28-5.084 4.562-2.075.176-3.673-.142-3.673-.73M439 528c5.148-5.148-.7-9.577-5.975-4.524-1.564 1.499-3.068 3.58-3.341 4.625-.425 1.626.064 1.899 3.41 1.899 2.573 0 4.589-.683 5.906-2m0 13.8c0-.66 2.656-5.273 5.903-10.25s6.208-10.082 6.581-11.344c.632-2.136 1.137-2.273 7.347-2 5.13.226 6.669.64 6.669 1.794 0 1.05-1.448 1.666-4.82 2.054-4.666.536-6.633 1.96-6.665 4.824-.011 1.048.94 1.225 3.985.738 3.185-.51 4-.332 4 .872 0 .984-.963 1.512-2.757 1.512-3.885 0-9.454 1.73-10.407 3.232-2.158 3.399-.943 4.657 5.164 5.347 6.178.7 6.862 1.159 4.8 3.221-1.664 1.664-19.8 1.663-19.8 0m24-.789c0-1.094 1.963-4.581 4.361-7.75 2.399-3.168 5.088-7.18 5.977-8.916 3.318-6.481 7.555-8.003 13.59-4.882 3.347 1.73 4.072 3.299 4.072 8.808 0 3.657-.56 4.625-5.09 8.811-5.478 5.064-7.937 5.918-17.035 5.918-5.197 0-5.875-.23-5.875-1.989m18.682-3.909c3.394-2.492 6.604-8.828 5.897-11.641-.623-2.483-4.317-4.16-6.945-3.151-1.622.623-12.61 15.916-12.068 16.796.713 1.155 10.944-.408 13.116-2.004M486 541.51c0-.82 1.64-3.633 3.645-6.25s4.91-7.571 6.458-11.009l2.813-6.25h4.907c7.04 0 10.177 2.663 10.177 8.638 0 4.088-.474 4.967-5.268 9.76-4.72 4.72-5.839 5.337-10.75 5.927-8.895 1.067-11.982.857-11.982-.816m18.674-5.031c2.912-1.908 6.317-7.24 6.322-9.9.006-2.982-2.975-5.578-6.401-5.575-2.844.003-3.48.693-7.845 8.502-2.613 4.674-4.75 8.785-4.75 9.136 0 1.183 10.232-.563 12.674-2.163m5.745 5.602c-.234-.231.273-1.487 1.127-2.791.855-1.304 2.588-4.265 3.85-6.58 7.112-13.031 9.04-15.709 11.315-15.709 1.259 0 2.289.491 2.289 1.091s-2.475 4.524-5.5 8.718C516.036 537.16 516.149 538 525 538c3.85 0 7 .395 7 .878 0 2.505-3.651 3.583-12.207 3.602-4.922.01-9.14-.17-9.374-.4m23.581-.233c0-.807 9.33-18.884 12.118-23.481 1.768-2.913 2.377-3.168 8.642-3.61 3.707-.26 7.168-.087 7.69.385 1.763 1.594-1.325 3.23-6.689 3.545-3.452.202-5.68.875-6.479 1.958-1.852 2.51-.648 3.356 4.777 3.356 2.718 0 4.941.42 4.941.933 0 1.146-1.964 1.728-8.724 2.585-4.496.57-5.507 1.12-7.25 3.94-1.114 1.803-2.026 4.07-2.026 5.04 0 1.558.68 1.683 5.916 1.091 6.52-.738 8.56.425 4.866 2.775-2.33 1.483-17.782 2.772-17.782 1.483m33.75-3.835-4.53-3.989-2.661 3.489c-2.579 3.38-4.559 4.484-4.559 2.54 0-.523 3.228-6.373 7.174-13L570.348 515h5.626c3.094 0 6.127.5 6.739 1.113 1.453 1.453 3.287.275 3.287-2.113 0-2.466.833-2.863 4.75-2.267 4.04.614 4.2 2.725.356 4.712-1.762.912-4.233 3.936-6.317 7.733-2.964 5.403-4.014 6.444-7.855 7.79-2.439.854-5.004 1.917-5.7 2.361-1.67 1.067-.609 2.671 1.766 2.671 2.5 0 3.463 1.737 1.964 3.544-1.719 2.07-2.16 1.915-7.213-2.532m8.757-9.582c1.917-.91 3.842-2.86 4.578-4.634 1.121-2.708 1.052-3.223-.6-4.43-2.179-1.594-4.897-1.75-7.373-.426-2.508 1.342-7.427 8.742-6.648 10.001.962 1.558 6.25 1.289 10.043-.511M644 538.223c0-1.483 3.407-5.758 10.198-12.798 3.754-3.891 7.413-7.878 8.13-8.859 2.733-3.737 4.78-1.512 7.76 8.434 1.567 5.225 2.863 10.302 2.88 11.281.044 2.439-2.97 3.436-4.414 1.461-.637-.87-4.003-2.098-7.481-2.729-6.156-1.116-6.395-1.078-9.003 1.42-2.482 2.378-8.07 3.617-8.07 1.79m22-8.176c0-2.36-2.033-7.047-3.057-7.047-.405 0-2.218 1.687-4.029 3.75l-3.292 3.75 2.939.632c5.736 1.232 7.439.984 7.439-1.085m11.86 7.041c-3.646-2.953-3.31-9.722.733-14.745 4.583-5.695 9.18-8.494 13.367-8.14 2.413.203 3.628.849 3.855 2.047.259 1.364-.357 1.75-2.791 1.75-4.386 0-8.473 2.373-10.927 6.344-3.72 6.018-2.346 10.116 3.336 9.955 2.801-.08 3.567.284 3.567 1.693 0 3.45-7.34 4.172-11.14 1.096m16.14-.398c0-2.58 10.892-24.69 12.163-24.69 1.621 0 2.124 3.075.931 5.693-.643 1.411-.914 2.82-.603 3.131s3.644-1.097 7.407-3.129S721.473 514 722.37 514c3.024 0 1.659 2.945-2.302 4.965-2.163 1.104-4.223 2.477-4.578 3.051s.145 4.4 1.112 8.502c.967 4.1 1.43 7.783 1.03 8.184-1.756 1.755-4.201-1.747-5.406-7.743-.7-3.487-1.52-6.586-1.82-6.887s-2.203.41-4.227 1.578c-2.531 1.461-4.158 3.403-5.215 6.223-1.709 4.559-3.2 6.397-5.454 6.728-.944.139-1.51-.577-1.51-1.91m73.229 1.693c-1.832-.812-4.229-5.849-4.229-8.883 0-7.24 10.994-17.5 18.75-17.5 3.937 0 5.25 1.676 5.25 6.7 0 2.886.432 4.3 1.315 4.3 1.53 0 4.685-6.13 4.685-9.103 0-1.537.549-1.958 2.24-1.717 3.46.494 3.186 2.87-1.2 10.376-5.277 9.029-5.285 11.193-.04 10.476 3.3-.452 11.841-11.409 14.227-18.253.601-1.725 1.69-2.779 2.87-2.779 2.762 0 2.385 1.78-2.132 10.083-7.65 14.062-13.272 18.362-19.847 15.178-1.749-.848-3.41-2.576-3.74-3.893-.79-3.147-1.34-3.009-4.898 1.229-2.484 2.959-3.815 3.664-7.5 3.974-2.464.207-5.052.123-5.751-.188m10.649-7.891c2.438-2.203 4.248-4.947 4.864-7.373 2.095-8.253-3.411-9.713-10.373-2.75-3.72 3.718-4.369 4.97-4.369 8.416 0 6.283 4.04 6.981 9.878 1.707m-149.636 6.35c-.683-.683-1.242-2.314-1.242-3.624 0-2.66 5.512-15.983 7.466-18.043 1.773-1.871 14.709-2.103 16.88-.303 2.729 2.264 2.145 8.296-1.096 11.319-3.645 3.4-5.86 4.438-11.25 5.276-3.232.502-5.207 1.533-7.008 3.658-1.998 2.356-2.761 2.706-3.75 1.717m18.304-12.297c4.097-4.097 2.625-7.545-3.223-7.545-3.53 0-5.545 2.172-6.723 7.25-.616 2.653-.496 2.75 3.426 2.75 2.983 0 4.719-.654 6.52-2.455M737 537.542c0-1.165 7.094-14.65 10.544-20.043l3.518-5.499 7.719.015c4.245.008 8.394.467 9.22 1.02 2.73 1.827-1.687 3.965-8.192 3.965-4.497 0-5.809.339-5.809 1.5 0 1.137 1.232 1.5 5.083 1.5 6.379 0 6.273 2.129-.163 3.313-10.075 1.854-10.128 1.887-13.361 8.208-2.483 4.854-3.576 6.039-5.809 6.295-1.512.174-2.75.05-2.75-.275m68.03-2.292c.016-.962 2.284-5.125 5.04-9.25s5.27-8.714 5.586-10.199c.315-1.484 1.393-3.44 2.395-4.347 1.724-1.56 2.024-1.323 5.632 4.449 2.096 3.353 4.098 6.097 4.448 6.097s1.641-2.475 2.869-5.5c2.101-5.177 4.083-6.793 5.507-4.49.395.64 1.416.457 2.781-.5 1.193-.835 4.291-1.51 6.934-1.51 3.58 0 4.778-.376 4.778-1.5 0-.825.45-1.5 1-1.5s1 .83 1 1.845.9 2.66 2 3.655c1.529 1.383 2 3.08 2 7.198 0 5.028-.31 5.718-4.625 10.332-2.866 3.065-6.004 5.328-8.25 5.952-3.989 1.108-14.431 1.379-15.41.4-.34-.34 1.19-4.215 3.4-8.611 5.02-9.984 6.097-12.771 4.934-12.771-.496 0-3.297 4.54-6.225 10.089-4.95 9.38-7.576 12.502-9.861 11.726-.51-.173.176-2.565 1.524-5.315s2.452-5.45 2.455-6c.002-.55-1.277-2.545-2.843-4.434l-2.848-3.434-.758 2.39c-.916 2.887-8.216 13.981-10.35 15.728q-3.165 2.595-3.114-.5m39.97-5.104c3.22-2.357 7-7.916 7-10.294 0-2.445-3.486-5.852-5.989-5.852-1.484 0-3.007 2.026-6 7.978-5.03 10.003-5.136 11.492-.761 10.635 1.788-.35 4.375-1.46 5.75-2.467m-443.99-3.633c-1.287-1.552-.738-4.513.836-4.513 1.584 0 3.4 2.915 2.797 4.487-.736 1.918-2.054 1.927-3.632.026m762.744-2.004c.263-1.38.877-2.509 1.363-2.509 1.366 0 1.043 2.623-.48 3.886-1.103.916-1.272.653-.883-1.377m-666.424-16.09c-.843-2.198.321-14.898 1.582-17.254.9-1.683 2.444-1.995 11.812-2.386 5.927-.248 11.564-.059 12.526.42 1.43.712 1.75 2.222 1.75 8.271 0 4.07-.439 8.554-.975 9.965l-.976 2.565h-12.556c-10.525 0-12.654-.256-13.163-1.581m22.143-2.376c.326-.526.29-3.901-.079-7.5l-.67-6.543-5.612.014c-9.087.022-9.88.472-10.272 5.829-.674 9.222-.732 9.157 8.17 9.157 4.33 0 8.138-.43 8.463-.957m135.277-53.826c-1.512-.193-2.75-.826-2.75-1.408 0-1.025 6.135-15.538 8.051-19.045 2.143-3.922 1.25-4.764-5.051-4.764-5.688 0-6-.126-6-2.431 0-2.385.186-2.438 9.601-2.75 21.471-.713 35.845 2.06 18.907 3.648-8.954.84-8.615.476-14.452 15.487-2.235 5.75-4.4 10.715-4.81 11.033s-1.983.422-3.496.23m100.412-6.467c-.547-1.787-1.268-4.892-1.604-6.9-1.376-8.22-7.143-7.448-12.17 1.631-3.485 6.294-5.9 8.407-7.629 6.678-.73-.73-.254-2.654 1.576-6.354 5.168-10.45 18.16-25.036 16.88-18.951-.525 2.498.903 5.146 2.776 5.146 1.02 0 3.968-1.612 6.55-3.583 3.177-2.425 5.022-3.255 5.709-2.567 1.764 1.764.01 3.984-5.25 6.65-2.802 1.42-5.34 3.222-5.64 4.005s.437 4.38 1.64 7.995 1.934 7.23 1.625 8.036c-.983 2.56-3.435 1.58-4.463-1.786m-53.83.672c-.333-.868.243-2.633 1.281-3.923s4.999-6.43 8.802-11.422 7.264-9.077 7.691-9.077c2.177 0 1.592 2.378-1.62 6.586-1.965 2.574-4.284 6.083-5.154 7.797-2.06 4.061-8.194 11.617-9.43 11.617-.53 0-1.237-.71-1.57-1.578m-26.772-1.672c2.031-6.574 13.883-22.75 16.669-22.75 1.233 0 .833 2.333-.76 4.441-2.002 2.647-1.861 3.244.933 3.945 4.792 1.203 8.562-.395 10.667-4.52 1.898-3.721 4.931-5.283 4.931-2.54 0 1.557-7.65 15.97-10.895 20.527-2.214 3.109-6.109 4.32-6.1 1.897.001-.687 1.327-3.245 2.945-5.684s2.714-4.8 2.437-5.25c-.278-.449-2.481-.816-4.897-.816-4.366 0-4.414.038-8.027 6.5-2.951 5.277-4.102 6.5-6.116 6.5-2.113 0-2.378-.334-1.787-2.25m44.614-.064c-4.046-4.308-1.905-11.112 5.566-17.688 4.585-4.036 9.45-5.707 13.173-4.526 3.47 1.102 2.552 3.485-1.288 3.34-6.15-.231-14.965 8.063-14.428 13.578.263 2.702.73 3.151 3.553 3.423 2.44.236 3.25.796 3.25 2.25 0 2.97-6.932 2.703-9.826-.378m76.702-2.455c-.583-1.502-1.432-5.206-1.886-8.231s-1.153-7.458-1.552-9.851c-.65-3.891-.531-4.314 1.118-3.996 1.347.26 2.271 2.087 3.427 6.779.87 3.533 2.117 6.601 2.77 6.82 1.775.59 7.669-4.28 10.675-8.823 1.456-2.2 3.038-3.759 3.516-3.464.478.296 1.178 2.786 1.556 5.535s1.077 5.239 1.554 5.533 4.015-2.701 7.863-6.657c6.156-6.33 7.192-7.03 8.633-5.835 1.484 1.232 1.355 1.596-1.39 3.909-3.307 2.786-15.157 17.091-15.159 18.3 0 .413-.848.75-1.884.75-2.111 0-3.082-2.564-3.103-8.191-.008-2.03-.39-3.924-.851-4.209-1.051-.649-7.28 5.833-9.722 10.119-2.487 4.363-4.27 4.847-5.565 1.512m20.786-7.481c-.277-.688-.504-.125-.504 1.25s.227 1.937.504 1.25.278-1.813 0-2.5m11.793 7.795c-3.758-3.757-2.906-7.848 3.183-15.278 5.895-7.194 12.764-9.387 15.805-5.044.857 1.222 1.557 2.995 1.557 3.94 0 3.4 2.104 2.89 6.592-1.597 8.561-8.561 15.447-7.343 16.591 2.934.535 4.806 2.038 4.388 4.281-1.192 1.148-2.856 2.425-5.53 2.839-5.944.993-.993 8.54-.518 10.776.678 2.49 1.332 4.21 7.284 3.435 11.876-.799 4.73-.13 5.232 7.05 5.296 3.918.035 6.052-.461 7.462-1.737 2.84-2.57 2.45-4.158-1.48-6.022-1.9-.902-3.934-2.218-4.521-2.925-2.743-3.305 4.51-10.838 9.975-10.36 1.375.12 3.557-.36 4.849-1.064 2.296-1.253 2.333-1.208 1.645 2.056-.94 4.452-1.858 5.248-4.454 3.86-1.736-.93-2.657-.847-4.575.409-3.025 1.982-2.437 3.536 2.297 6.07 4.353 2.328 5.373 6.118 2.733 10.147-3.524 5.378-15.766 7.286-20.89 3.256-1.465-1.152-3.213-1.81-3.884-1.46-.672.349-2.346 1.285-3.72 2.08-3.474 2.01-13.918 1.923-16.861-.139-2.132-1.493-2.602-1.48-6.255.167-5.287 2.384-9.397 2.255-12.207-.385-2.97-2.79-4.527-2.73-8.678.333-4.567 3.37-10.203 3.388-13.545.046zm10.361-3.295c2.615-2.246 6.184-9.092 6.184-11.863 0-6.047-5.844-4.81-11.486 2.431-3.934 5.049-4.261 6.699-1.859 9.353 2.082 2.301 4.542 2.328 7.161.079zm23.035-1.778c5.207-4.381 7.882-15.472 3.732-15.472-2.328 0-9.05 5.59-10.914 9.076-1.46 2.732-1.617 3.98-.775 6.174 1.335 3.476 4.002 3.55 7.957.222zm24.281-.515c2.594-3 3.265-8.701 1.366-11.6-.9-1.374-2.377-2.34-3.311-2.168-1.904.351-9.492 14.509-8.573 15.995.934 1.512 8.709-.135 10.518-2.227m-91.019-30.017c-5.688-7.694-8.26-12.115-7.777-13.372.287-.75 4.717-3.84 9.843-6.867 7.187-4.243 9.632-5.248 10.68-4.389 1.603 1.314 9.141 12.498 9.141 13.563 0 1.877-16.158 14.125-18.635 14.125-.544 0-2.007-1.377-3.252-3.06m10.301-5.428c3-1.919 5.731-3.938 6.07-4.486.623-1.008-3.885-9.538-5.6-10.598-.51-.315-3.867 1.526-7.461 4.09-7.272 5.189-7.068 3.84-1.808 11.982.888 1.375 2.005 2.5 2.48 2.5.477 0 3.32-1.57 6.32-3.488m-161.997 2.132c-.738-1.923-9.22-4.644-14.474-4.644-2.032 0-6.113-1.066-9.069-2.37s-7.665-2.858-10.464-3.455c-7.023-1.497-26.351-11.51-35.466-18.372-8.03-6.045-16.758-15.653-34.796-38.303-17.986-22.585-30.962-32.57-48.148-37.048-4.014-1.046-11.854-1.85-20.5-2.103-15.906-.465-23.442.94-37.323 6.955-8.823 3.824-26.993 15.195-38.177 23.893-42.853 33.327-47.032 36.185-69.5 47.528-14.227 7.183-20.274 9.003-40.616 12.223-8.7 1.378-29.96 1.477-34.11.16-1.8-.573-6.649-1.972-10.774-3.11-17.493-4.829-35.189-15.225-47.014-27.62-10.782-11.303-12.283-13.54-19.097-28.463-6.441-14.109-6.67-14.805-9.854-29.915-5.374-25.506-7.145-35.074-9.998-54-1.7-11.275-3.553-23.425-4.118-27a815 815 0 0 1-2.051-14c-3.321-24.332-5.326-31.189-11.258-38.5l-2.434-3h-22.338c-18.085 0-22.338-.257-22.338-1.35 0-1.004 2.174-1.424 8.5-1.639 10.054-.342 37.979-.779 39.701-.621 1.446.132 7.76 11.193 10.514 18.416 2.99 7.846 5.36 21.66 8.269 48.194 1.446 13.2 3.338 27.375 4.205 31.5.866 4.125 1.948 9.75 2.406 12.5.457 2.75 1.292 6.8 1.854 9s1.49 6.82 2.06 10.268c1.786 10.81 6.929 25.96 14.833 43.695 2.79 6.26 11.215 17.49 17.783 23.703 8.919 8.439 29.694 19.895 43.228 23.838 15.892 4.63 40.996 4.632 59.147.004 20.283-5.171 45.396-19.084 68.5-37.947 20.081-16.396 40.953-31.126 53.577-37.81 30.763-16.291 68.63-14.682 93.423 3.97 9.169 6.898 14.84 12.982 27.625 29.642 6.433 8.383 20.113 22.908 28.633 30.401 4.984 4.383 14.183 10.098 21.242 13.195 3.575 1.569 7.4 3.42 8.5 4.114 4.728 2.983 34.123 10.717 49 12.893 20.186 2.951 38.769 1.995 56.5-2.909 26.936-7.448 34.034-10.173 60.5-23.224 7.53-3.713 27.337-17.25 32.304-22.076 2.409-2.341 4.788-4.257 5.288-4.257s6.283-5.287 12.852-11.75 13.432-13.152 15.25-14.866c3.268-3.082 20.518-21.93 33.222-36.303 6.292-7.119 6.75-7.428 11.32-7.65 3.434-.165 8.812-2.095 19.264-6.911 26.194-12.071 40.849-16.859 67.5-22.053 24.942-4.862 44.964-7.762 62-8.982 26.941-1.928 64.4-10.535 73.893-16.977 1.906-1.294 5.564-3.28 8.129-4.415 7.846-3.47 17.605-10.553 25.478-18.49 4.125-4.16 7.837-7.571 8.25-7.582s.75.822.75 1.852c0 3.368-22.921 23.395-31.5 27.523-23.803 11.455-55.482 19.2-86.5 21.151-12.955.815-45.36 5.751-69.5 10.587-15.118 3.03-37.146 10.732-55.105 19.27-10.84 5.153-17.803 7.857-21.298 8.271-5.952.705-7.073 1.705-21.65 19.325-13.864 16.757-29.954 32.896-46.947 47.094-6.36 5.312-9.968 9.028-9.913 10.204.065 1.36-.43 1.715-1.87 1.338-1.31-.342-4.643 1.372-10.063 5.176-27.6 19.37-55.833 32.028-86.534 38.8-13.709 3.024-32.912 4.073-47.12 2.573-8.124-.857-9.75-.779-11.23.542-1.562 1.396-1.789 1.388-2.353-.083zm174.126-15.575c-.317-.512-.118-1.213.44-1.559s1.017-2.872 1.017-5.616c0-4.493-.297-5.156-2.994-6.69-4.294-2.444-3.703-3.536 1.494-2.756 4.424.663 4.5.627 4.515-2.137.008-1.546.408-3.431.889-4.19 1.632-2.577 3.096-.019 3.096 5.412 0 5.002.229 5.534 2.99 6.962 1.644.85 3.331 1.566 3.75 1.59.743.045.478 2.996-.346 3.843-.23.235-2.178-.563-4.332-1.773-4.185-2.352-4.4-2.26-5.504 2.34-1.112 4.634-3.585 6.889-5.015 4.574zM623.036 373.25c-5.784-9.407-4.864-8.933-11.47-5.909-3.194 1.463-6.466 2.659-7.27 2.659-2.916 0-.567-2.563 4.928-5.376 5.262-2.694 5.55-3.027 4.537-5.25-.595-1.306-1.46-2.374-1.921-2.374-1.245 0-1.018-2.772.292-3.582.652-.403 2.49.918 4.336 3.117l3.204 3.817 4.63-1.296c4.604-1.29 8.321-.874 7.278.814-.3.486-2.579 1.396-5.063 2.021-2.484.626-4.517 1.374-4.517 1.663 0 1.28 4.003 8.204 5.427 9.385.865.718 1.573 2.15 1.573 3.183 0 3.402-2.994 1.96-5.964-2.872m-322.477-11.5c.382-1.237 1.312-3.465 2.068-4.95 1.934-3.805 1.706-7.188-.627-9.3-2.974-2.691-2.442-3.59 1.75-2.96 3.474.523 3.86.326 5.25-2.672 1.922-4.148 4.693-5.951 5.978-3.89.618.99.43 2.018-.571 3.125-.821.907-1.745 3.206-2.054 5.109-.512 3.153-.283 3.574 2.581 4.76 2.729 1.13 5.066 3.65 5.066 5.462 0 1.182-2.282.49-4.727-1.434-3.847-3.026-6.017-2.55-7.798 1.713-1.86 4.454-4.27 7.287-6.197 7.287-1.004 0-1.212-.651-.719-2.25m348.836-11.76c-29.506-4.468-51.598-16.628-65.116-35.84-7.688-10.928-20.537-26.232-30.457-36.28-13.624-13.798-31.393-24.897-44.322-27.685-2.75-.593-7.475-1.603-10.5-2.244-14.162-3.002-36.453-2.343-57.268 1.692-21.981 4.261-50.55 18.144-67.915 33.004-3.126 2.675-11.847 9.363-19.38 14.863-7.534 5.5-15.823 11.912-18.421 14.25s-5.128 4.25-5.623 4.25-3.09 1.557-5.767 3.46c-6.95 4.941-24.288 13.157-32.835 15.56-4.01 1.126-12.174 2.489-18.143 3.028-9.558.862-11.852.741-19.243-1.014-11.71-2.782-17.807-6.166-25.655-14.242-8.654-8.908-13.089-17.947-19.03-38.792-2.166-7.6-3.452-14.787-4.742-26.5-.606-5.5-1.248-10.9-1.427-12s-.644-7.4-1.035-14c-.84-14.198-3.703-33.22-6.474-43-3.163-11.162-7.897-23.5-10.083-26.28-1.11-1.41-1.66-2.919-1.225-3.354s8.885-1.01 18.778-1.277c9.894-.268 18.438-.534 18.988-.592 1.607-.168 8.76-.147 11.75.035 7.056.428 39.965.208 55.25-.37 21.103-.798 43.146-1.286 117.5-2.598 112.504-1.986 177.392-3.454 203-4.592 21.839-.97 93.604-2.408 126-2.525 17.875-.064 37.225-.502 43-.973 5.775-.472 31.7-1.127 57.613-1.456l47.113-.6.573 4.277c.587 4.372-1.152 14.75-3.82 22.805-.82 2.475-2.423 7.425-3.563 11-4.31 13.514-11.965 30.333-18.8 41.304-19.065 30.604-34.56 50.265-55.24 70.089-25.925 24.853-52.722 42.018-80.376 51.488-11.347 3.886-34.448 7.15-49.742 7.03-6.192-.049-16.705-.913-23.363-1.922M694 346.985c2.475-.49 6.525-1.189 9-1.55 8.117-1.189 27.11-7.442 37.403-12.315 10.654-5.043 29.73-17.202 41.857-26.68 17.973-14.044 45.916-44.227 59.354-64.11 13.992-20.703 29.596-55.066 35.796-78.83 3.198-12.258 3.689-15.32 2.565-16.015-.874-.54-86.07.837-124.475 2.012-8.8.27-34.225.714-56.5.988-49.466.608-93.229 1.538-93.973 1.998-.303.188-12.246.608-26.54.934s-34.987.826-45.987 1.112c-22.905.594-103.462 2.302-139 2.947-71.84 1.303-87.798 1.69-106.5 2.578-11.275.536-37.224.855-57.665.71s-37.424-.006-37.74.308c-.315.315 1.184 4.815 3.332 10 5.915 14.279 7.883 21.425 9.028 32.771.573 5.69 1.24 10.663 1.48 11.052s.738 4.06 1.103 8.157c1.833 20.524 6.793 53.035 8.838 57.933.807 1.933 1.996 6.44 2.642 10.015 1.45 8.026 8.825 23.137 13.81 28.295 4.538 4.698 16.601 11.426 22.934 12.792 12.57 2.711 29.814 2.023 40.826-1.63 6.323-2.097 19.28-8.582 24.97-12.497 2.442-1.68 5.178-4.496 6.08-6.257 1.995-3.894 3.298-4.833 5.679-4.091 2.466.768 9.815-4.219 29.183-19.803 16.181-13.02 24.258-18.853 32.26-23.3 4.807-2.67 9.19-5.397 9.74-6.059s2.399-1.46 4.109-1.773c1.71-.314 6.13-1.955 9.824-3.646 7.325-3.355 22.39-7.568 30.77-8.605 2.977-.368 5.903-1.372 6.682-2.29 1.157-1.368 1.298-1.383.86-.094-.462 1.362 1.626 1.493 17.902 1.127 20.18-.454 24.922.136 40.353 5.025 7.794 2.469 12.014 4.686 23.5 12.35 18.953 12.644 29.192 23.185 48.9 50.344 9.926 13.678 28.122 28.136 40.186 31.93 14.209 4.47 53.614 6.905 67.414 4.167m-27.751-38.615c-2.16-1.794-2.26-2.57-2.45-19.088-.108-9.47.005-17.39.252-17.6s4.049-.111 8.449.219l8 .6.252 8c.403 12.816.206 12.5 7.767 12.5H695v-20.74l3.75-.62c2.063-.34 4.988-.624 6.5-.63 1.773-.007 2.75-.544 2.75-1.511 0-2.487 1.445-1.697 3.2 1.75 2.278 4.471 3.577 33.417 1.612 35.926-1.122 1.434-4.421 1.776-22.812 2.37-20.11.648-21.646.572-23.751-1.176m35.187-2.024 7.738-.654-.337-15.265c-.185-8.395-.6-15.527-.924-15.849-.322-.321-2.67-.299-5.216.05l-4.63.635-.283 10.118-.284 10.119-6 .577c-3.3.317-7.687.37-9.75.118-3.669-.448-3.75-.55-3.75-4.68 0-2.322-.29-6.988-.642-10.368l-.643-6.147H668v15.333c0 8.434.3 15.634.667 16 .856.856 22.691.865 32.769.013M646 301.184c0-2.948-.003-2.95-7.71-3.672-7.59-.71-7.745-.679-9.903 2.027-2.125 2.666-5.387 2.94-5.387.453 0-2.735 4.242-8.876 8.646-12.514 8.008-6.617 12.452-9.713 13.063-9.102.803.803 5.227 11.423 6.424 15.42.543 1.814.847 4.739.677 6.5-.257 2.659-.778 3.258-3.06 3.52-2.45.282-2.75-.005-2.75-2.632m1-6.664c0-.264-.724-2.289-1.609-4.5-1.956-4.889-3.96-5.127-7.954-.946-2.856 2.99-2.884 3.114-.996 4.5 1.765 1.296 10.559 2.084 10.559.946m-305.367-7.499c-1.448-2.188-2.633-4.337-2.633-4.776 0-1.05 8.039-6.245 9.664-6.245 1.404 0 6.336 6.765 6.336 8.69 0 1.238-7.8 6.31-9.705 6.31-.566 0-2.214-1.79-3.662-3.979m-22.396-5.771c-8.065-12.894-8.963-16.856-4.248-18.75 1.37-.55 7.962-3.812 14.65-7.25s12.779-6.25 13.532-6.25 2.486 2.138 3.85 4.75 3.749 6.678 5.3 9.035c1.553 2.356 2.66 4.772 2.461 5.368-.476 1.43-29.31 17.782-31.428 17.824-.63.013-2.483-2.114-4.117-4.727m13.667-2.93c5.205-2.906 16.36-9.661 17.87-10.823.15-.116-.781-2.066-2.07-4.335-1.782-3.137-2.62-3.845-3.506-2.96-.64.64-1.509.82-1.93.4s.029-1.346.998-2.055c1.675-1.224 1.664-1.409-.208-3.668l-1.971-2.379-9.655 5c-5.31 2.75-10.94 5.772-12.511 6.716l-2.856 1.715 1.506 4.285c1.565 4.45 5.982 11.784 7.097 11.784.352 0 3.608-1.656 7.236-3.68m20.091-20.826c-.992-1.196-.784-2.6 1.077-7.239 2.854-7.116 8.621-16.03 10.8-16.694 3.103-.944 13.21 1.076 15.157 3.03 1.655 1.66 1.822 2.866 1.285 9.24-.35 4.164-1.22 7.931-2.01 8.723-2.21 2.209-8.742 3.546-16.092 3.293-3.728-.128-7.275.074-7.882.449s-1.658.014-2.335-.802M373 253.105c1.946-.541 2.5-1.35 2.5-3.65 0-2.932-.049-2.957-6.365-3.256-4.9-.231-6.8.092-8.25 1.405-1.885 1.706-2.474 4.474-1.218 5.73.846.846 10.034.689 13.333-.229m5-11.559c0-2.8-3.058-4.546-7.964-4.546-3.475 0-4.992.442-5.429 1.582-1.45 3.78-.775 4.235 6.393 4.302 5.372.05 7-.26 7-1.338m261.667 5.787c-1.63-1.63-.247-2.258 5.583-2.535l6.25-.298.294-6.116c.289-5.997.24-6.126-2.5-6.624-1.537-.279-5.044-.227-7.794.116l-5 .624-.294 7.25c-.211 5.222-.666 7.25-1.625 7.25-2.587 0-3.701-14.825-1.266-16.846 1.616-1.342 19.497-1.742 20.774-.465 1.098 1.098 1.519 15.519.501 17.165-.756 1.224-13.761 1.641-14.923.48zm118.522-13.372c-4.41-4.108-1.67-15.322 4.94-20.223 3.434-2.545 6.07-1.642 8.19 2.806 2.204 4.62 2.12 5.97-.746 12.126-3.44 7.388-8.029 9.349-12.384 5.291m7.504-4.614c2.414-3.685 2.471-12.66.084-13.138-3.136-.628-7.993 10.18-6.418 14.283.917 2.391 4.433 1.755 6.334-1.145m11.38 4.018c-1.14-1.45-2.063-3.587-2.05-4.75.035-3.465 3.492-9.886 7.24-13.45 4.359-4.144 7.386-3.953 10.059.637 1.665 2.86 1.785 3.997.891 8.5-1.852 9.334.74 7.13 6.534-5.552 3.232-7.077 3.792-7.75 6.446-7.75 7.143 0 11.918 5.474 10.06 11.53-.973 3.17-.862 3.674 1.08 4.898 3.516 2.213 6.455 2.756 8.63 1.592 2.812-1.505 2.55-4.676-.614-7.397-2.124-1.826-2.517-2.818-1.973-4.983 1.171-4.668 10.167-8.572 11.365-4.932.219.664-1.209 1.878-3.172 2.699s-3.569 1.92-3.569 2.445 1.643 2.272 3.65 3.883c3.1 2.486 3.549 3.336 2.974 5.628-1.502 5.982-11.993 8.646-17.79 4.518l-2.976-2.119-2.869 2.748c-2.413 2.312-3.975 2.828-9.84 3.247-6.186.443-7.112.274-8.216-1.493-1.231-1.971-1.282-1.967-4.728.372-4.658 3.16-8.507 3.067-11.132-.27m8.965-3.115c3.93-3.52 5.856-10.785 3.487-13.154-1.187-1.187-1.978-1.303-3.294-.483-2.632 1.64-6.196 8.505-6.214 11.97-.028 5.244 1.543 5.68 6.021 1.667m20.707-2.111c5.321-3.308 7.754-7.736 5.844-10.639-.724-1.1-2.483-2.14-3.91-2.312-2.338-.282-2.966.456-6.386 7.5-2.086 4.297-3.959 8.197-4.161 8.667-.588 1.365 3.998-.347 8.613-3.216m-63.087 6.186c-.362-.362-.66-1.37-.663-2.242-.003-.87-.497-3.352-1.098-5.515l-1.091-3.932-3.37 3.932c-1.854 2.163-3.649 4.746-3.99 5.74-.394 1.153-1.402 1.697-2.782 1.5-1.947-.277-2.196-1.01-2.48-7.308-.483-10.655 2.513-17.98 5.755-14.073.8.963.687 1.638-.427 2.563-1.717 1.425-1.976 5.77-.479 8.01.853 1.275 1.338 1.12 3.235-1.033 1.228-1.393 2.938-3.607 3.801-4.92 1.92-2.92 3.931-1.988 3.931 1.82 0 1.513.6 3.57 1.332 4.572 1.22 1.668 1.593 1.355 4.462-3.727 3.239-5.74 4.848-7.404 6.022-6.23.72.72-8.534 19.027-10.408 20.59-.6.5-1.388.615-1.75.253m-140.24-21.018c-.976-8.823-.881-11.873.529-17.108 1.177-4.372 2.876-5.864 5.52-4.85 1.29.495 1.29.988 0 4.075-.807 1.932-1.456 5.439-1.444 7.794l.024 4.282 4.531-4.75c2.493-2.612 4.905-4.75 5.36-4.75 1.067 0 2.031 3.621 2.048 7.691.023 5.18 1.5 4.616 4.534-1.733 1.566-3.277 3.44-5.958 4.164-5.958s1.316.291 1.316.647-2.362 5.304-5.25 10.996c-3.674 7.242-5.78 10.35-7.02 10.352-1.433.004-1.635-.515-1.064-2.745.768-3.001.795-3.6.472-10.25l-.22-4.5-2.975 3.482c-1.637 1.916-3.818 5.74-4.846 8.5-2.812 7.55-4.758 7.146-5.679-1.175zm27.154 5.122c-5.132-5.132 3.847-22.408 11.655-22.425 2.353-.005 4.95 4.23 5.064 8.258.147 5.217-3.978 12.71-7.902 14.349-4.329 1.809-6.879 1.756-8.817-.182m8.938-4.74c5.442-5.441 6.045-17.367.713-14.083-.948.583-3.185 3.268-4.973 5.966-6.222 9.39-3.052 15.43 4.26 8.118m10.145 4.482c-2.264-2.501-2.063-5.763.719-11.671 4.57-9.708 10.588-13.248 14.07-8.277 1.879 2.683 1.952 5.268.321 11.365-2.222 8.31-10.898 13.238-15.11 8.583m8.98-4.421c6.236-7.073 5.512-18.746-.814-13.121-2.373 2.11-6.796 10.956-6.811 13.621-.015 2.627 5.169 2.287 7.625-.5m6.742 3.788c-.309-.804.645-3.927 2.12-6.941 1.474-3.014 3.225-7.613 3.89-10.221.931-3.65 1.797-4.937 3.76-5.592 3.354-1.118 7.3.442 9.462 3.741 1.606 2.451 1.609 2.943.052 7.883-2.11 6.69-2.176 6.274 1.29 8.066q8.886 4.596 10.647-4.213c.52-2.597.151-3.387-2.494-5.342-3.468-2.564-3.841-4.421-1.547-7.696 1.096-1.565 2.575-2.223 5-2.223 3.689 0 4.48 1.522 1.806 3.477-1.488 1.088-1.393 1.614 1.042 5.77 3.196 5.454 2.792 8.568-1.59 12.256-3.884 3.268-10.627 3.435-14.777.367l-2.88-2.13-3.447 2.13c-4.079 2.52-11.47 2.921-12.334.668m10.075-2.953c3.65-1.525 5.411-4.043 6.641-9.496 1.023-4.538-.4-7.089-3.956-7.089-2.581 0-3.034.634-5.965 8.35-1.744 4.593-3.172 8.643-3.172 9 0 1.076 2.857.737 6.452-.765M876.14 317.74c-.754-.755-.91-4.93-.49-13.173.676-13.256 1.27-14.673 7.201-17.15 4.54-1.898 6.504-1.787 8.557.482 2.95 3.258 1.19 8.799-4.476 14.104-4.45 4.167-4.834 4.908-5.122 9.89-.255 4.427-.69 5.526-2.438 6.169-1.268.466-2.574.336-3.232-.322m9.787-19.376c1.14-1.449 2.072-3.924 2.072-5.5 0-2.471-.385-2.865-2.8-2.865-3.928 0-4.774 1.253-4.36 6.46.42 5.263 1.985 5.85 5.088 1.905m6.914 11.885c-.303-3.346.205-5.808 3.248-15.75 3.936-12.857 4.96-15.5 6.009-15.5 1.349 0 3.428 3.885 6.421 12 1.522 4.125 3.248 8.111 3.836 8.858.795 1.011.606 1.697-.74 2.682-2.202 1.61-4.33.935-5.145-1.632-1.233-3.884-6.909-.804-8.003 4.343-.698 3.285-3.07 6.75-4.623 6.75-.465 0-.916-.788-1.003-1.75m9.408-13.642c1.868-1.418 2.29-5.207.836-7.503-.682-1.078-1.249-.69-2.485 1.7-1.67 3.23-2.144 7.218-.85 7.163.412-.017 1.537-.63 2.5-1.36m-878.5 3.312c-.962-.56-1.75-1.72-1.75-2.578 0-1.182.633-1.4 2.617-.902 6.61 1.66 8.796 1.748 12.7.518 2.3-.725 4.746-1.742 5.433-2.26 2.02-1.523 1.472-6.833-.975-9.437-2.072-2.206-2.121-2.553-.711-5.065 1.29-2.299 2.17-2.696 5.975-2.696 3.299 0 4.461.391 4.461 1.5 0 1.117-.931 1.42-3.65 1.183-5.009-.434-5.852 1.482-1.983 4.51 2.232 1.747 3.133 3.29 3.133 5.364 0 4.063-4.538 8.827-9.5 9.972-5.293 1.222-13.564 1.164-15.75-.11zm26.953.395c-.273-.448 1.874-5.277 4.77-10.731l5.266-9.917 5.33-1.364c6.313-1.615 7.614-1.267 9.014 2.416.94 2.47.724 3.064-1.976 5.477-2.74 2.448-5.076 3.365-13.23 5.191-1.657.371-3.073 1.672-3.842 3.528-1.394 3.367-4.596 6.61-5.332 5.4m16.2-13.892C72.905 284.02 73.61 280 68.03 280c-1.957 0-3.665.965-5.441 3.077-4.347 5.165-2.947 6.25 4.314 3.345zM67 300.54c0-.692 3.731-6.866 10.5-17.377 3.237-5.026 8.785-7.81 13.303-6.676 2.7.677 2.443 2.876-.386 3.302-4.648.7-6.377 1.314-7.847 2.784-2.59 2.59-1.819 3.426 3.18 3.442 3.435.011 4.335.284 3.25.985-.825.533-3.3.983-5.5 1-4.7.036-5.244.352-8.833 5.134l-2.727 3.634 2.431.61c1.338.336 4.524.324 7.08-.026 4.118-.565 5.008-1.164 7.79-5.245 4.672-6.85 11.971-15.107 13.356-15.107 1.655 0 4.403 8.416 4.403 13.487 0 5.088 2.111 8.496 4.193 6.768.775-.644 2.935-5.127 4.8-9.963s3.866-9.123 4.448-9.527c1.714-1.19 10.054-.87 11.359.435 3.273 3.273-.312 10.113-6.683 12.752-3.262 1.35-3.893 2.872-1.982 4.783.846.846 1.736.74 3.5-.415 2.196-1.44 2.363-1.417 2.333.315-.04 2.389-2.289 5.365-4.053 5.365-.75 0-2.838-1.657-4.64-3.682-1.995-2.243-3.275-3.085-3.275-2.155 0 .84-.837 2.285-1.861 3.211-2.307 2.088-9.83 1.43-11.618-1.014-.715-.979-3.194-1.814-6.255-2.108-4.31-.415-5.227-.193-6.123 1.481-.831 1.553-2.492 2.097-7.849 2.57-3.737.332-8.931.91-11.544 1.286s-4.75.353-4.75-.05m36.41-12.33c-.134-6.488-1.615-7.056-5.307-2.035-2.97 4.038-3.056 4.386-1.386 5.608.98.716 2.907 1.17 4.282 1.01 2.25-.264 2.492-.723 2.412-4.582m24.84-3.03c2.572-2.19 2.196-5.03-.763-5.773-3.691-.926-6.598 2.005-8.473 8.546l-.767 2.674 4.126-1.978c2.27-1.088 4.915-2.649 5.877-3.468M139 299.365c-3.834-1.892-8.228-6.943-7.831-9.002.307-1.593.801-1.408 3.74 1.401 3.562 3.404 5.368 3.843 9.44 2.294 3.678-1.398 4.33-4.705 1.518-7.699l-2.322-2.471 1.98-3.694c1.702-3.176 2.468-3.693 5.477-3.693 4.334 0 4.973 2.83.748 3.316-3.517.405-3.622 3.016-.25 6.184 1.375 1.292 2.5 3.36 2.5 4.598 0 5.84-9.583 11.44-15 8.766m779.323-.964c-.304-.794-.373-5.934-.153-11.422.26-6.473.037-9.976-.635-9.971-.57.004-2.357.878-3.973 1.943-3.06 2.017-4.562 1.88-4.562-.416 0-1.383 11.265-6.492 18.634-8.45 2.273-.604 4.69-1.77 5.372-2.591 1.177-1.418 4.994-2.127 4.994-.927 0 .31-.516 1.53-1.146 2.707-.63 1.178-1.236 3.623-1.346 5.434-.168 2.768.144 3.293 1.957 3.293 4.124 0 6.535-3.52 6.535-9.539 0-3.004.413-5.461.918-5.461s1.553-.244 2.329-.541c1.185-.455 1.342 1.668.98 13.25-.443 14.2-1.528 18.291-4.852 18.291-1.357 0-1.478-1-.861-7.137l.717-7.138-2.866.705c-5.589 1.376-7.066 3.087-7.993 9.263-.742 4.943-1.207 5.855-3.122 6.127-1.237.175-2.244-.05-2.237-.5.016-1.012 3.51-17.8 4.49-21.57.392-1.512.466-2.75.163-2.75-.958 0-8.13 4.364-8.966 5.455-.44.575-.518 5.821-.174 11.659.604 10.254.553 10.632-1.512 11.172-1.348.353-2.34.026-2.69-.886m-73.757-5.65c-.204-.687-.923-3.387-1.598-6L841.74 282h-4.87c-5.925 0-6.334-1.529-.809-3.017 3.99-1.074 4.056-1.166 3.75-5.187-.369-4.852 1.5-6.17 2.967-2.091.553 1.537 1.962 3.798 3.132 5.023 1.804 1.89 2.81 2.135 6.609 1.614 3.732-.511 4.481-.34 4.481 1.022 0 1.209-.931 1.636-3.566 1.636-5.926 0-7.383 1.313-6.357 5.731.481 2.073.886 4.557.9 5.519.026 1.988-2.844 2.409-3.41.5M823 286.5c0-.825.45-1.5 1-1.5s1 .675 1 1.5-.45 1.5-1 1.5-1-.675-1-1.5m151.79-3.25c-.393-1.924.575-7.666 2.778-16.485.787-3.154 1.432-6.192 1.432-6.75 0-1.361-3.312-1.286-6.457.147-3.329 1.517-4.459.302-1.987-2.136 1.343-1.325 5.003-2.406 11.836-3.497 5.44-.868 10.136-1.335 10.433-1.037.865.865-1.038 2.175-4.995 3.438-4.434 1.416-5.347 3.575-6.957 16.45-.627 5.016-1.585 9.683-2.13 10.37-1.426 1.803-3.538 1.536-3.953-.5m10.384-3.564c-2.775-2.954-2.791-7.395-.05-13.227 2.454-5.22 5.178-7.459 9.075-7.459 4.104 0 6.235 3.814 5.427 9.711-.77 5.624-2.675 8.739-6.93 11.333-4.087 2.492-4.88 2.454-7.522-.358m7.822-6.936c3.621-6.262 3.749-11.073.306-11.563-1.687-.24-2.642.573-4.114 3.5-5.726 11.386-2.304 18.63 3.808 8.063M138 277.122c0-2.882 2.105-5.683 3.342-4.447 1.08 1.08.747 4.836-.542 6.125-1.927 1.927-2.8 1.404-2.8-1.678m876 .156c-2.624-.932-6-4.562-6-6.452 0-2.153 2.269-2.412 3.9-.447 2.948 3.552 12.546 2.903 16.57-1.12 3.87-3.871 3.36-7.404-1.673-11.584-3.915-3.253-4.12-3.67-3.012-6.103 1.794-3.937 8.9-6.02 9.935-2.913.212.637-.988 1.46-2.667 1.83-3.858.847-3.845 1.87.056 4.731 4.096 3.003 5.176 6.007 3.884 10.804-1.03 3.825-5.431 8.455-9.437 9.93-3.128 1.15-9.87 1.923-11.556 1.324zm27.029-4.528c.016-.688 1.069-6.13 2.34-12.093 2.505-11.741 2.271-12.611-2.86-10.66-3.608 1.371-5.707-.286-2.52-1.991 2.768-1.482 20.968-2.885 21.716-1.674.802 1.297-1.81 2.696-4.705 2.52-5.582-.342-5.519-.44-7.4 11.398-1.806 11.36-2.714 13.75-5.222 13.75-.758 0-1.365-.563-1.35-1.25m9.26-2.44c-.71-1.852 1.38-5.83 9.515-18.104 5.257-7.932 8.118-9.957 8.767-6.206.84 4.858 3.618 15.208 4.914 18.31.833 1.995 1.515 4.315 1.515 5.158 0 2.548-3.484 1.721-5.768-1.369-1.8-2.434-2.976-2.956-7.324-3.25-4.978-.336-5.238-.225-6.708 2.857-1.795 3.766-4.014 4.942-4.911 2.605m17.003-13.032c-1.216-7.778-1.66-8.064-4.957-3.198-1.647 2.431-3.25 4.87-3.564 5.42-.338.593 1.4 1.113 4.271 1.278l4.841.277zm-955.687 11.891c-.283-.456-.78-6.869-1.105-14.25-.326-7.38-.787-14.666-1.025-16.19-.293-1.871.22-3.424 1.578-4.782 1.815-1.815 3.108-1.984 13.19-1.73l11.178.283.747 3.5c.41 1.925 1.057 10.068 1.436 18.095l.69 14.595-2.397.641c-3.524.943-23.693.809-24.292-.161zm22.163-2.611c.148-.144-.077-7.19-.5-15.66L132.5 235.5l-7.663.11c-11.706.167-10.952-.96-10.784 16.126.08 8.12.386 15.155.679 15.633.447.73 18.23-.028 19.036-.811m945.718-.604c-.358-1.125.107-6.555 1.033-12.066.925-5.51 1.387-10.315 1.026-10.676s-2.625.052-5.032.917c-2.498.899-4.942 1.224-5.694.759-2.576-1.593 1.5-3.799 8.98-4.86 4.01-.568 8.974-1.892 11.03-2.941 2.872-1.465 4.184-1.66 5.652-.838 1.393.78 2.017.755 2.3-.09.212-.637 1.073-1.159 1.914-1.159 1.177 0 1.393.746.941 3.25-.322 1.788-.856 6.35-1.187 10.137-1.103 12.659-1.766 15.08-4.223 15.433-1.938.278-2.226-.134-2.226-3.175 0-1.922.947-7.606 2.104-12.632s1.893-9.35 1.636-9.607c-.258-.258-1.768.183-3.355.978s-4.07 1.902-5.52 2.458c-2.267.87-2.79 1.902-3.75 7.416-.613 3.523-1.115 9.181-1.115 12.574 0 5.43-.231 6.168-1.933 6.168-1.068 0-2.223-.914-2.582-2.046m24.643-9.704c-1.873-2.296-2.138-3.493-1.607-7.25 2.161-15.285 12.915-24.38 17.07-14.436 3.034 7.264.594 19.091-4.706 22.804-3.65 2.556-8.14 2.09-10.757-1.118m11.621-7.212c3.696-7.33 2.347-17.44-2.1-15.734-2.447.939-5.465 6.489-6.66 12.248-1.4 6.736-.617 8.642 3.388 8.252 2.57-.25 3.52-1.093 5.372-4.766m-152.721 6.001c-.81-.512-1.26-1.14-1-1.396.774-.766 5.971.517 5.971 1.474 0 1.155-3.097 1.107-4.971-.078m160.617-1.802c-.26-.42.158-5.88.927-12.131s1.148-12.37.84-13.596c-.38-1.514.245-3.155 1.949-5.12l2.507-2.89 3.596 7.75c1.978 4.263 4.032 7.75 4.565 7.75.967 0 1.588-8.694 1.195-16.733-.184-3.776.068-4.302 2.33-4.87 1.396-.35 2.687-.47 2.869-.267s-.032 4.42-.476 9.37-.838 12.213-.877 16.14c-.054 5.409-.524 7.698-1.942 9.449l-1.871 2.31-1.613-3.118c-.886-1.715-2.58-5.742-3.762-8.95-4.187-11.36-5.698-10.362-5.813 3.837-.039 4.768-.343 9.38-.677 10.25-.631 1.645-2.926 2.146-3.747.819M895 245.114c0-1.037 2.095-5.874 4.656-10.75 6.136-11.682 7.295-14.053 12.64-25.864 5.065-11.195 13.552-35.891 14.227-41.403 1-8.165 3.987-20.687 5.53-23.184.637-1.03 9.133-1.335 40.626-1.46 40.525-.159 123.389-1.122 169.071-1.965 21.904-.405 25.25-.269 25.25 1.023 0 1.17-1.444 1.492-6.75 1.502-3.712.007-14.625.216-24.25.465s-45.85.699-80.5 1-75.6.806-91 1.125c-32.544.673-30.25-.169-32.978 12.1-.953 4.288-2.768 11.622-4.033 16.297-1.264 4.675-2.615 10.075-3.002 12-1.077 5.368-9.08 24.507-14.215 34-4.546 8.401-9.577 21.028-8.72 21.885.243.243 4.606-1.626 9.695-4.155 10.258-5.096 21.684-8.603 38.253-11.74 6.05-1.147 14.15-2.776 18-3.621s8.35-1.674 10-1.842 5.7-.776 9-1.353c13.188-2.306 20.626-3.202 34.5-4.157l21.5-1.478c15.448-1.06 26.36-2.577 32.403-4.508 3.497-1.117 6.855-2.031 7.462-2.031s7.186-3.002 14.62-6.672c10.992-5.426 14.588-7.764 19.265-12.525 5.902-6.008 7.149-9.397 4.322-11.743-1.112-.923-2.073-.852-4.344.322-3.819 1.975-12.315 2.978-14.228 1.68-1.292-.877-1.114-1.68 1.286-5.79 1.532-2.625 4.23-7.614 5.997-11.087 3.183-6.262 3.24-6.31 6.695-5.661 4.922.923 6.974 2.22 8.07 5.102 1.57 4.128 1.097 7.048-1.672 10.34-1.444 1.715-2.348 3.395-2.01 3.733s2.736.937 5.329 1.33c4.3.653 4.96.47 7.51-2.08 3.461-3.461 3.563-6.4.295-8.541-3.606-2.363-3.233-5.747.99-8.968 3.57-2.724 6.51-2.71 6.51.029 0 .842-.83 1.53-1.845 1.53s-2.64.88-3.612 1.954c-1.707 1.886-1.677 1.975.868 2.614 3.08.773 5.589 3.951 5.589 7.079 0 3.774-4.551 8.096-9.676 9.19-2.544.542-5.138.789-5.764.549s-1.703 1.122-2.392 3.028c-1.713 4.736-9.01 12.623-15.931 17.22-8.907 5.917-30.107 12.849-48.424 15.833-2.028.33-14.403 1.233-27.5 2.006-24.343 1.436-30.21 2.1-50.313 5.69-42.722 7.632-59.577 12.084-74.88 19.777-8.983 4.517-12.12 5.08-12.12 2.175m220.011-71.153c4.91-2.52 7.544-10.263 4.52-13.287-3.892-3.892-6.468-1.374-11.882 11.615l-1.58 3.789 3.716-.67c2.043-.37 4.395-1.02 5.226-1.447m-185.483 18.085c-1.073-1.737.73-6.457 5.175-13.546 2.414-3.85 5.77-9.925 7.46-13.5 1.688-3.575 3.58-6.842 4.203-7.26 1.382-.928 8.666.109 10.358 1.474 1.61 1.3 2.661 7.116 1.86 10.305-.349 1.392-2.25 4.32-4.226 6.506-2.987 3.307-4.23 3.975-7.393 3.975-5.524 0-6.52.623-10.135 6.339-4.12 6.514-5.929 7.928-7.302 5.707m19.75-15.962c3.035-1.153 4.952-5.676 4.54-10.705-.271-3.306-.693-3.923-2.853-4.175-2.244-.261-2.928.518-5.97 6.805-2.9 5.997-3.206 7.246-1.965 8.03 1.865 1.18 3.237 1.19 6.249.045M956 182.45c0-1.039 3.264-6.86 7.879-14.048 2.541-3.96 5.099-7.999 5.683-8.976.592-.99 1.575-1.46 2.22-1.06.794.49-.248 2.976-3.304 7.887-2.455 3.944-4.975 8.763-5.6 10.709-.627 1.946-1.585 4.1-2.13 4.788-.973 1.225-4.748 1.782-4.748.7m26-1.483c0-.569 1.145-3.294 2.545-6.057l2.546-5.023-3.113-2.907-3.112-2.908-1.683 3.026c-5.897 10.605-7.95 13.424-9.99 13.721-3.059.446-2.77-.685 1.713-6.693 2.148-2.88 5.186-7.685 6.75-10.678 2.733-5.231 5.344-7.138 5.344-3.903 0 .85 1.185 2.73 2.633 4.179 2.53 2.53 2.687 2.56 4 .763.752-1.028 1.367-2.657 1.367-3.62 0-2.19 1.85-3.418 3.166-2.101.655.655.172 2.643-1.422 5.862-1.328 2.68-3.443 7.684-4.7 11.122-1.697 4.636-2.773 6.25-4.166 6.25-1.033 0-1.878-.465-1.878-1.033m10-.746c0-.153 2.654-4.49 5.898-9.64 3.243-5.148 6.19-10.28 6.546-11.405.508-1.6 1.828-2.191 6.086-2.723 5.986-.748 8.859-.12 8.22 1.797-.242.728-2.437 1.337-5.249 1.459-4.326.187-6.44 1.341-6.486 3.541-.01.412 2.01.75 4.485.75 3.486 0 4.5.366 4.5 1.624 0 1.357-.904 1.549-5.5 1.168-5.26-.437-5.586-.322-7.468 2.626-1.083 1.695-2.756 4.16-3.72 5.478l-1.75 2.397 4.847-.727c2.666-.4 5.46-.962 6.21-1.25 1.596-.612 3.06 2.425 1.764 3.66-.784.746-18.383 1.94-18.383 1.245m42.213-1.054c-.946-.61-1.21-3.593-1-11.249.273-9.899.398-10.434 2.507-10.734 2.08-.295 2.21.036 2.072 5.273-.225 8.554 1.187 8.667 6.646.532 2.616-3.9 5.248-6.927 5.848-6.727 1.202.4 3.58 9.51 3.715 14.238l.086 3 1.292-3.615c1.454-4.068 4.372-8.452 7.519-11.296 2.26-2.042 4.173-1.397 2.566.866-6.384 8.994-9.697 14.46-10.158 16.761-.428 2.143-1.125 2.784-3.025 2.784-2.385 0-2.446-.168-1.786-4.965.412-2.998.22-6.367-.485-8.503l-1.168-3.538-4.27 5.801c-2.35 3.19-4.714 7.13-5.255 8.753-1.024 3.074-2.904 4.039-5.104 2.619zm32.908-.251c-4.312-.914-5.316-2.468-4.735-7.332.991-8.291 10.667-16.999 16.59-14.93 3.36 1.175 3.663 4.564 1.033 11.592-3.641 9.732-6.427 12.038-12.888 10.67m5.946-4.988c3.979-4.26 5.32-12.928 2-12.928-2.107 0-8 6.266-9.139 9.716-1.049 3.18-.972 3.778.63 4.95 2.594 1.897 3.287 1.712 6.509-1.738m13.522 1.995c-4.75-5.645-2.548-13.275 5.34-18.494l4.005-2.651 3.283 1.91c4.61 2.683 5.722 7.49 3.18 13.75-3.404 8.386-11.116 11.062-15.808 5.485m9.05-2.383c2.686-1.88 4.604-6.545 4.188-10.183-.26-2.268-.89-2.922-3.058-3.172-5.639-.65-9.758 7.23-6.734 12.88 1.237 2.312 2.794 2.444 5.605.475M20 162.147c0-.965 28.623-2.213 42.915-1.872 6.474.155 9.546.616 9.833 1.475.328.98-5.342 1.25-26.165 1.25-14.62 0-26.583-.384-26.583-.853m56.227-.341c.263-.798 2.48-1.425 5.704-1.612 3.99-.231 5.168.012 4.842 1-.263.798-2.48 1.425-5.704 1.612-3.99.231-5.168-.012-4.842-1M55 155.19c0-.446 1.159-3.709 2.575-7.25s3.21-8.465 3.988-10.94c1.278-4.065 1.252-4.62-.265-5.75-.924-.688-2.746-1.25-4.048-1.25-1.324 0-2.096-.44-1.75-1 .353-.57 5.44-1 11.845-1h11.227l3.214 4.182c3.377 4.393 3.96 7.501 2.09 11.134-3.301 6.407-8.829 8.604-12.221 4.855-3.036-3.354-1.709-7.917 4.186-14.391 2.176-2.391 2.275-2.798.81-3.36-2.014-.773-8.363.305-9.133 1.55-.303.492-1.904 5.288-3.557 10.658s-3.74 10.576-4.638 11.568C57.655 156.04 55 156.65 55 155.19m22.15-9.27c2.517-1.347 5.144-7.417 4.327-9.993-.846-2.666-1.882-2.423-4.888 1.15-2.807 3.336-4.163 7.185-3.124 8.866.815 1.32 1.18 1.317 3.685-.024m25.996.33C100.96 141.519 97 128.638 97 126.253c0-.69.607-1.253 1.348-1.253 1.488 0 3.997 5.206 5.642 11.708.585 2.314 1.477 4.463 1.982 4.775s2.4-2.41 4.21-6.05c3.734-7.5 8.974-13.433 11.866-13.433 2.702 0 2.441 1.4-.56 3.006-2.726 1.46-8.482 11.076-10.471 17.494-1.408 4.543-3.675 8.5-4.87 8.5-.442 0-1.793-2.137-3-4.75m3.537-1.437c-.32-.798-.556-.561-.604.604-.043 1.054.193 1.644.525 1.312s.368-1.195.08-1.916m10.322 4.406c.007-2.487 9.264-20.6 10.745-21.027 1.72-.494 1.578 2.291-.191 3.76-.793.657-2.93 4.981-4.75 9.608-3.123 7.94-5.815 11.492-5.804 7.659m9.487.94c-.683-.683 10.48-22.159 11.516-22.159 1.602 0 1.159 2.28-1.525 7.844-4.02 8.331-3.83 9.422 1.818 10.486 3.347.631 4.71 1.34 4.5 2.342-.226 1.076-2.257 1.492-8.11 1.657-4.294.122-7.984.045-8.2-.17m19.51-1.234c-.003-2.075 4.303-14.68 6.399-18.733 1.745-3.375 5.4-4.657 4.112-1.442-1.454 3.626-5.513 16.351-5.513 17.28 0 .534 2.25.97 5 .97s5 .395 5 .878c0 2.076-3.072 3.068-8.827 2.853-4.848-.182-6.17-.568-6.171-1.806m18.577.202c-1.537-2.486.786-7.232 6.996-14.29 3.549-4.036 6.897-7.487 7.439-7.67.56-.19.986 1.8.986 4.603 0 2.715.29 7.703.643 11.083.537 5.14.39 6.147-.894 6.147-2.024 0-3.173-3.114-1.533-4.155 1.88-1.192.784-1.034-5.25.758-2.967.88-5.905 2.3-6.528 3.151-.824 1.127-1.33 1.229-1.86.373m9.874-7.287c1.859-.847 2.547-1.928 2.547-4 0-1.562-.446-2.84-.991-2.84-1.189 0-7.009 5.936-7.009 7.148 0 1.198 2.452 1.059 5.453-.308m14.113 4.637c-1.411-1.523-2.566-3.618-2.566-4.655 0-5.242 5.657-12.62 11.315-14.758 4.047-1.53 9.685-1.365 9.685.282 0 .945-1.36 1.317-4.571 1.25-4.136-.087-4.945.305-8.5 4.115-4.118 4.414-5.276 9.542-2.729 12.089 3.323 3.323 10.515-.813 9.368-5.387-.555-2.208-.308-2.413 2.913-2.413 3.822 0 4.368 1.027 1.992 3.75-.84.962-2.528 3.015-3.752 4.562-1.586 2.005-3.424 2.973-6.407 3.373-3.658.49-4.503.214-6.748-2.208m17.932 1.52c-.359-.581 2.037-5.656 5.325-11.277l5.978-10.22 6.699-.298c4.718-.21 6.585.042 6.315.853-.211.634-2.305 1.295-4.653 1.47-5.293.395-7.721 2.096-5.983 4.191.83 1 2.7 1.347 6.013 1.118 3.223-.224 4.81.056 4.809.849-.001 1.736-3.434 2.535-9.256 2.154-4.874-.32-5.252-.164-7.44 3.06-3.708 5.467-3.196 6.352 3.445 5.95 4.599-.277 5.75-.047 5.75 1.153 0 1.188-1.698 1.557-8.175 1.777-4.96.167-8.43-.14-8.827-.78M402 145.696c0-1.268 1.29-4.305 2.865-6.75 4.055-6.294 18.708-21.328 20.004-20.527.665.411.85 2.353.48 5.049-.33 2.409-.287 6.052.097 8.094l.697 3.715 4.294-4.215c2.362-2.318 5.592-5.97 7.179-8.115 1.586-2.145 3.672-3.91 4.634-3.923 2.113-.029 2.114-.017.308 4.706-.792 2.073-2.676 7.979-4.185 13.122-2.403 8.192-4.367 11.488-5.919 9.936-.252-.253.37-2.896 1.385-5.874s2.15-6.98 2.524-8.893l.678-3.478L432.5 133c-2.499 2.452-5.473 6.38-6.61 8.729-2.53 5.225-4.889 5.664-4.889.91 0-5.555-1.212-12.64-2.162-12.64-1.87 0-10.086 9.306-11.965 13.554-2.108 4.767-4.873 5.982-4.873 2.142m38.008-1.946c.011-3.021 4.444-10.342 10.227-16.89 2.604-2.948 5.632-6.485 6.73-7.86 1.41-1.767 2.227-2.15 2.788-1.309.436.656.928 7.293 1.093 14.75.261 11.794.096 13.559-1.273 13.559-.865 0-1.63-.675-1.698-1.5-.27-3.23-.424-3.604-1.875-4.521-.825-.522-3.343-.955-5.595-.964-4.134-.015-6.406 1.525-7.722 5.235-.886 2.5-2.684 2.164-2.675-.5m17.566-13.616c-.26-3.099-.496-5.779-.524-5.955-.142-.91-9.05 9.716-9.05 10.795 0 .947 6.57 1.823 8.774 1.17.912-.27 1.14-1.976.8-6.01m8.86 12.369c1.13-6.03 9.1-24.003 10.641-24.003 1.822 0 1.737.343-2.621 10.5-2.006 4.675-4.1 10.157-4.655 12.183s-1.687 3.944-2.517 4.262c-1.239.476-1.39-.052-.848-2.943m8.576 1.32c.027-3.69 12.416-25.823 14.454-25.823.686 0 2.11 3.223 3.202 7.25 1.108 4.081 2.513 7.25 3.217 7.25.687 0 2.734-3.375 4.55-7.5 1.89-4.296 3.998-7.638 4.934-7.823.898-.178 1.633.057 1.633.522 0 1.16-5.53 15.72-8.2 21.588-2.385 5.245-4.773 5.928-5.957 1.703-2.911-10.388-4.427-14.99-4.938-14.99-1.88 0-6.46 7.877-8.432 14.5-1.118 3.757-4.485 6.263-4.463 3.323m50.99-2.718c0-1.043 2.461-6.833 5.47-12.868l5.47-10.971 4.851-.644c8.871-1.177 17.209 1.659 17.209 5.853 0 3.969-5.433 7.278-14.45 8.801l-7.818 1.32 3.134 2.638c1.723 1.45 4.708 3.206 6.634 3.902 3.548 1.283 4.688 2.864 2.065 2.864-2.734 0-6.778-2.04-11.162-5.633L533 132.758l-1.352 3.371c-.743 1.854-1.629 4.159-1.968 5.121-.828 2.35-3.679 2.238-3.679-.145zm25.408-14.173c9.267-4.564 2.773-9.718-9.223-7.32-3.748.75-7.404 6.956-5.041 8.558 1.872 1.268 10.736.5 14.264-1.238m9.168 13.735c-4.638-4.638-2.751-11.702 4.931-18.465 2.63-2.314 6.533-4.733 8.673-5.374 3.433-1.029 4.21-.928 6.605.854 3.82 2.843 4.32 10.398 1.01 15.26-3.749 5.508-9.12 9.228-14.144 9.794-3.872.436-4.858.148-7.075-2.07m12.396-3.297c3.323-2.796 8.028-11.081 8.028-14.137 0-4.64-4.335-5.402-10.412-1.83-6.768 3.976-10.553 10.616-9.177 16.097.906 3.611 7.2 3.54 11.561-.13m30.778 4.873c-1.07-.238-1.75-1.318-1.75-2.781 0-3.062-2.658-4.462-8.468-4.462-4.196 0-4.78.307-6.664 3.5-2.19 3.71-4.87 4.675-4.864 1.75.006-2.846 3.223-7.316 11.671-16.219 5.384-5.673 8.455-8.195 9.492-7.797 1.226.47 1.647 3.168 2.093 13.427.307 7.062.487 12.869.4 12.905-.088.036-.947-.11-1.91-.323M601 128c0-2.75-.359-5-.797-5-1.584 0-8.416 7.846-7.759 8.91.37.6 2.447 1.09 4.615 1.09H601zm9 13.676c0-.343 1.76-4.123 3.911-8.4s5.052-10.364 6.445-13.526l2.534-5.75 5.805.004c9.918.006 14.333 4.275 12.988 12.56-.765 4.716-3.983 8.942-9.085 11.932-3.352 1.964-6.244 2.643-13.435 3.153-5.04.358-9.163.37-9.163.027m17.123-4.697c3.79-1.744 8.124-8.602 8.24-13.04.117-4.464-2.18-6.856-6.632-6.907-2.549-.03-3.167.817-7.75 10.607-2.74 5.852-4.981 10.863-4.981 11.136 0 .785 8.495-.586 11.123-1.796m411.436.116c-.308-.498.903-2.66 2.69-4.803 1.789-2.145 4.956-6.38 7.04-9.411 4.15-6.036 4.16-8.881.03-8.881-1.81 0-2.377-.466-2.13-1.75.291-1.525 1.807-1.787 11.759-2.034l11.424-.285-1.841 2.035c-1.13 1.248-3.093 2.034-5.082 2.034-2.968 0-3.942.946-11.577 11.25-9.681 13.064-10.86 14.198-12.314 11.845zm-79.02-2.033c-.622-1.006 3.924-13.269 6.129-16.534.733-1.085 1.332-2.255 1.332-2.6s-2.812-.582-6.25-.527c-4.925.078-6.25-.218-6.25-1.397 0-2.486 6.303-3.534 19.25-3.201 11.352.292 12.25.457 12.25 2.256 0 2.531.606 2.45 4.183-.559 5.952-5.008 10.817-2.48 10.817 5.621 0 5.96-1.675 9.509-6.484 13.73-2.68 2.354-4.548 3.149-7.396 3.149-7.268 0-9.008-5.34-4.584-14.07 1.395-2.753 2.268-5.438 1.941-5.967-.327-.53-3.067-.963-6.088-.963h-5.494l-2.857 6.25a617 617 0 0 0-4.89 11c-1.9 4.432-4.242 6.025-5.61 3.812m31.346-4.694c2.63-1.842 7.09-10.704 7.105-14.118.015-3.35-4.847-3.054-8.244.5-3.342 3.497-6.66 10.862-6.011 13.344.618 2.362 3.985 2.49 7.15.274m21.318 4.501c-2.933-.846-5.156-3.25-4.038-4.367.226-.227 2.194.223 4.373 1 2.18.775 6.967 1.43 10.64 1.454 6.03.04 6.876-.208 8.727-2.563 2.306-2.93 1.608-5.513-2.013-7.45-1.133-.607-2.722-2.685-3.53-4.618-1.301-3.115-1.293-3.78.068-5.859 1.378-2.102 2.211-2.324 8.09-2.155 6.499.187 8.426 1.205 8.465 4.47.025 2.126-2.933 2.575-4.947.753-1.039-.94-2.71-1.553-3.713-1.361-2.996.57-2.687 4.105.635 7.289 3.99 3.822 3.89 6.888-.36 11.138-3.31 3.31-3.605 3.398-11.25 3.31-4.317-.05-9.333-.518-11.147-1.04zm126.17-.337c-.327-.855.322-3.912 1.444-6.794 1.122-2.88 2.616-6.935 3.32-9.01.705-2.074 2.321-4.749 3.593-5.943 2.005-1.884 2.492-1.98 3.676-.729.75.794 2.167 5.044 3.148 9.444l1.783 8 1.581-5.004c2.177-6.888 5.92-12.674 7.946-12.284 1.968.38 2.117-.258-3.05 13.038-2.299 5.913-4.686 10.75-5.305 10.75-3.662 0-7.077-8.325-7.59-18.5-.107-2.125-.29-2.416-.63-1-3.224 13.472-8.195 22.513-9.915 18.032m-62.444-1.782c-.87-1.903-1.94-2.297-6.93-2.555-3.961-.204-6.658.183-8.2 1.176-2.917 1.88-9.799 3.197-9.799 1.876 0-.536 1.727-2.172 3.839-3.635s7.342-6.25 11.623-10.636c8.796-9.013 11.538-10.036 11.538-4.308 0 4.693 1.974 16.302 3.16 18.582.753 1.448.469 1.75-1.646 1.75-1.68 0-2.91-.771-3.585-2.25m-1.802-8.023c.965-1.458-.15-4.546-1.567-4.339-1.886.277-6.56 3.527-6.56 4.562 0 1.983 6.791 1.797 8.127-.223m11.891 8.593c.01-1.001 1.327-4.193 2.926-7.094 1.6-2.9 3.202-6.613 3.561-8.25.651-2.963.634-2.976-3.925-2.976-3.404 0-4.58-.385-4.58-1.5 0-1.256 2.105-1.5 12.941-1.5 7.118 0 13.188.399 13.489.886.657 1.063-2.75 2.082-7.025 2.1-4.022.018-5.568 1.858-9.687 11.526-2.589 6.076-3.92 8.065-5.56 8.308-1.542.228-2.153-.2-2.14-1.5m33.205.123c-1.223-.856-2.223-2.576-2.223-3.821 0-4.416 3.299-11.852 6.97-15.71 3.126-3.287 4.364-3.912 7.753-3.912 4.752 0 6.262 1.47 6.975 6.788.599 4.46-1.789 9.957-6.525 15.027-2.355 2.52-3.784 3.185-6.852 3.185-2.132 0-4.876-.7-6.098-1.557m11.188-4.52c3.07-3.647 3.84-6.25 3.409-11.51-.389-4.74-2.493-5.494-6.79-2.435-3.465 2.468-5.517 8.614-4.566 13.681.835 4.45 4.327 4.567 7.948.264M1102 133.302c0-.384 2.25-4.656 5-9.492s5-9.176 5-9.642c0-1.104 5.083-3.419 5.841-2.66.321.32-.046 1.575-.814 2.788-.769 1.212-2.846 4.967-4.617 8.343-4.816 9.185-6.449 11.361-8.525 11.361-1.037 0-1.885-.314-1.885-.698m-984-1.695c0-.949 2.993-1.427 3.527-.563.325.526-.336.956-1.468.956s-2.059-.177-2.059-.393m787.361-5.857c.526-1.987 1.97-8.886 3.244-15.5.451-2.345 3.348-3.183 3.458-1 .035.688.147 4.175.25 7.75l.187 6.5 5.5.5c10.178.925 4.42 3.81-7.867 3.942-5.086.055-5.335-.06-4.772-2.192M911 94.106v-3.894l-7.847-.356c-10.813-.492-11.156-.884-11.14-12.728C892.037 61.526 889.73 63 914.118 63H935v25.75l-3.125.625c-1.719.344-5.936.625-9.372.625h-6.247l-.64 4c-.497 3.11-1.082 4-2.628 4-1.644 0-1.988-.674-1.988-3.894m17.75-6.736c2.148-.576 2.25-1.068 2.25-10.875V66.223l-3.25-.551c-4.523-.767-22.368-.807-27.5-.062l-4.25.617V76.53c0 7.307.364 10.45 1.25 10.808 1.794.723 28.816.75 31.5.032m141.925 2.972c-.9-.901 1.251-3.342 2.947-3.342.758 0 1.378.9 1.378 2 0 1.946-2.84 2.827-4.325 1.342m-34.244-4.453c-.348-.564-3.175-.906-6.282-.76l-5.649.264-.295-8.447c-.457-13.092-.551-12.946 8.314-12.946H1040v10.893c0 8.655-.302 11.009-1.468 11.456-.807.31-1.753.103-2.1-.46m-.904-7.183c.34-1.812.473-5.074.296-7.25-.309-3.782-.488-3.97-4.073-4.266l-3.75-.31V82h3.455c3.115 0 3.515-.324 4.072-3.294m14.814 5.74c-.328-.854.126-3.217 1.01-5.25 2.422-5.573 3.099-14.086 1.179-14.823-3.534-1.356-1.05-2.373 5.796-2.373 6.33 0 7.6.306 9.35 2.25 3.158 3.507 3.433 4.416 2.176 7.175-1.047 2.299-1.746 2.575-6.513 2.575-5.285 0-5.339.03-5.339 3.05 0 6.463-5.85 12.112-7.659 7.396m15.474-16.196c-.244-1.285-1.487-1.833-4.678-2.063-3.238-.233-4.235.022-3.912 1 .364 1.102 2.366 1.765 8.098 2.681.453.073.674-.655.492-1.618M940.639 83.224c-.264-.426 1.202-4.814 3.258-9.75 2.922-7.017 4.213-9.044 5.92-9.294 1.653-.242 2.183.191 2.183 1.783 0 1.155.686 3.744 1.525 5.752l1.526 3.651 3.016-6.183c2.828-5.795 5.483-7.848 6.38-4.933.212.688.65 5.188.975 10 .559 8.288.484 8.75-1.416 8.75-1.593 0-2.01-.669-2.021-3.25-.025-5.273-1.349-6.374-3.846-3.2-1.177 1.496-2.139 3.109-2.139 3.585s-.633.865-1.407.865c-.828 0-2.116-2.253-3.13-5.479-.948-3.013-2.07-5.264-2.493-5.003s-1.315 2.84-1.981 5.729c-1.376 5.961-4.712 9.627-6.35 6.977"/>
</svg>
